<?xml version="1.0" encoding="UTF-8"?>
<svg xmlns="http://www.w3.org/2000/svg" xmlns:xlink="http://www.w3.org/1999/xlink" viewBox="0 0 300 300">
  <defs>
    <style>
      .cls-1 {
        stroke: #000;
        stroke-miterlimit: 10;
        stroke-width: 1.2px;
      }

      .cls-2 {
        fill: #000;
      }

      .cls-3 {
        fill: none;
      }

      .cls-4 {
        clip-path: url(#clippath-1);
      }

      .cls-5 {
        fill: #444;
      }

      .cls-6 {
        clip-path: url(#clippath-3);
      }

      .cls-7 {
        fill: #5fe5ea;
      }

      .cls-8 {
        fill: #11afc8;
      }

      .cls-9 {
        fill: #4d68b0;
      }

      .cls-10 {
        clip-path: url(#clippath-2);
      }

      .cls-11 {
        clip-path: url(#clippath);
      }
    </style>
    <clipPath id="clippath">
      <path class="cls-3" d="M176.4,122.5s12.3,29.9,9,55.4-12.5,52.3-12.5,52.3c0,0,11.4-14.2,18.8-29.1,4.8-9.6,7.9-24.2,8.1-33.8.5-24.3-10.9-54.7-10.9-54.7l-12.5,9.9Z"/>
    </clipPath>
    <clipPath id="clippath-1">
      <path class="cls-3" d="M38,117l-9.5,9.8s9.3,3,19.1-5.5l-10.6,9.6s13.7-1.5,21.6-10.2c0,0-15.4,31.5-30.1,30.3-14.8-1.2-28-11.5-28-11.5l3.4-12.6,34.1-9.9Z"/>
    </clipPath>
    <clipPath id="clippath-2">
      <path class="cls-3" d="M80.3,96.4s58.7,42.6,61,61c2.3,18.4,1.2,41.4,1.2,41.4,0,0,20.7-26.5,16.1-49.5-4.6-23-44.9-57.5-44.9-57.5l-34.5-8.1,1.2,12.7Z"/>
    </clipPath>
    <clipPath id="clippath-3">
      <path class="cls-3" d="M89.6,90.4s73.9,42.6,76.8,61c2.9,18.4,1.4,41.4,1.4,41.4,0,0,26.1-26.5,20.3-49.5-5.8-23-12.2-35.4-30.2-51.4s-69.8-14.2-69.8-14.2l1.4,12.7Z"/>
    </clipPath>
  </defs>
  <g id="_レイヤー_1" data-name="レイヤー_1">
    <path class="cls-5" d="M128.1,109.8s31,23.6,31,38-12,56.4-17,63.6,38-28.7,36-55.4-36-86.2-36-86.2l-37-7.2-33,5.1v15.4l56,26.7Z"/>
    <polygon points="93.9 142 92.9 150 94.9 143 106.9 141 93.9 142"/>
  </g>
  <g id="_レイヤー_2" data-name="レイヤー_2">
    <path class="cls-2" d="M89.6,155.1c2.6,13-10.8,32.5-22.9,37s-16.7,6.8-16.7,6.8l42.8,58.7,69.9,4.5s51.9-35.1,52.3-63.2-49-112.7-49-112.7c0,0-68.1-15.7-83.4,6.9-15.3,22.6-17.4,36.9-17.4,36.9,0,0,22.3,15.1,24.3,25.3Z"/>
    <polygon points="139.9 176.5 133.5 175.5 134.8 180.6 139.9 176.5"/>
    <path class="cls-5" d="M69.8,90.8c-9.2-6.2.8-26.6.8-26.6,0,0,16.1,1.1,29.9-3.5,13.8-4.6,26.5-11.5,26.5-11.5,0,0,8.3-7.4,27.7-8,0,0,16.1-.3,29.9,7.5.5.3,7.3,4.2,7.3,4.2,0,0,91.6,61.9,112.3,101,20.7,39.1,6.6,146,6.6,146H104s101.5-21.1,101.5-65.5c0-84.1-26.5-124.7-37.1-130s-89.4-7.6-98.6-13.7Z"/>
    <path class="cls-1" d="M104,229.9l55.9-31.4-2.2,4.4s-14.6,24.8-27.1,29.4c-16.6,6.1-26.5-2.4-26.5-2.4Z"/>
    <g>
      <path class="cls-2" d="M115.9,234.3c-3-3.4-4.2-5.1-4.5-7.5,2.9-1.3,4.4-2,7.4-3.4.4,3.8,1.8,5.7,4.1,10.8-3.1.4-4.5.4-7,.1Z"/>
      <path class="cls-2" d="M126,233.6c-1.5-3.9-2.2-5.9-3.5-8.4,1.9-.8,3.1-1.3,4.8-2,1.5,2.5,2.2,4.7,3.6,8.9-1.3.5-2.9,1.1-4.9,1.5Z"/>
      <path class="cls-2" d="M133.1,231c-1.2-4.8-2.4-5.9-3.3-9.7,1.7-.9,2.5-1.3,4.1-2.3.7,3.9,1.8,4.9,2.5,9.9-1.3,1-2,1.5-3.3,2.2Z"/>
      <path class="cls-2" d="M138.6,227c-.3-5.4-1.5-6.3-2-10.4-5.5,3.4-8.1,4.9-14.4,7.5-.2-.9-.3-1.3-.4-2.2,7.9-3.9,11.5-6,18.9-10.4,0,4.8,1.5,5.7,1.1,12.3-1.3,1.3-1.9,1.9-3.2,3.1Z"/>
      <path class="cls-2" d="M108.5,228.2c.4,1.5,1.3,2.6,3.8,4.8-1.4,0-2.1-.2-3.4-.3-3.1-1.2-4.1-2.1-4.7-2.6,1.7-.8,2.5-1.1,4.3-1.9Z"/>
      <path class="cls-2" d="M143.9,221.7c1.2-1.4,1.8-2.1,3-3.5,1.9-7.7.4-8,1.2-13.1-1.8,1-2.6,1.5-4.4,2.5-.5,5.4,1.2,6.2.2,14.1Z"/>
      <path class="cls-2" d="M142.2,213.1c0-1,0-1.5,0-2.4,6.8-4.1,10.2-6.3,16.8-10.3-1.9,3.7-1.2,2.8-5.4,8.9-1.1,1.6-1.7,2.5-3,4.3,2.2-5,1.5-4.5,2.4-7.7-4.2,2.9-6.3,4.4-10.7,7.3Z"/>
    </g>
    <path class="cls-5" d="M180.4,122.3s20.6,27,16.7,54.5c-3.9,27.5-16.6,60.4-16.6,60.4,0,0,20.6-16.6,31.7-33.4,7.2-10.9,11.3-26.9,11.1-37.1-.6-25.9-23.4-56.7-23.4-56.7l-19.5,12.3Z"/>
    <path class="cls-5" d="M176.4,122.5s12.3,29.9,9,55.4-12.5,52.3-12.5,52.3c0,0,11.4-14.2,18.8-29.1,4.8-9.6,7.9-24.2,8.1-33.8.5-24.3-10.9-54.7-10.9-54.7l-12.5,9.9Z"/>
    <g class="cls-11">
      <path class="cls-9" d="M178.2,201.6l1,7.4s9.4-11.9,9.6-15.6l-4.4,13.6s5.6-1.2,8.4-8.1c0,0-.7,19.4-9.1,25s-14,9.1-14.7,9.7,9.2-32,9.2-32Z"/>
    </g>
    <polygon class="cls-7" points="93.6 149.4 252.4 98.7 229.4 80.3 78.7 134.4 93.6 149.4"/>
    <path class="cls-7" d="M211.5,101s34.5,75.9,23,107-113.5,92-113.5,92h-53s123-54.6,140.2-91.4c17.3-36.8-19.6-96.6-19.6-96.6l22.8-10.9Z"/>
    <path class="cls-5" d="M75.2,76.9s-4.6-3.5-6.9-1.2-11.5,32.2-21.9,39.1c-10.4,6.9-42.6,19.6-42.6,19.6,0,0,24.2,2.3,35.7,0s38-32.2,43.7-38c5.8-5.8-8.1-19.6-8.1-19.6Z"/>
    <path class="cls-5" d="M60.9,102.2s-26.5,51.8-15,62.1c11.5,10.4,28.8,24.2,38,26.5,9.2,2.3,25.3,3.5,25.3,3.5,0,0-25.5-21.9-29-41.5-3.5-19.6,27.3-50,27.3-50l-16.8-9.8-29.9,9.2Z"/>
    <g class="cls-4">
      <path class="cls-9" d="M75.2,76.9s-4.6-3.5-6.9-1.2-11.5,32.2-21.9,39.1c-10.4,6.9-42.6,19.6-42.6,19.6,0,0,24.2,2.3,35.7,0s38-32.2,43.7-38c5.8-5.8-8.1-19.6-8.1-19.6Z"/>
    </g>
    <path class="cls-5" d="M80.3,96.4s58.7,42.6,61,61c2.3,18.4,1.2,41.4,1.2,41.4,0,0,20.7-26.5,16.1-49.5-4.6-23-44.9-57.5-44.9-57.5l-34.5-8.1,1.2,12.7Z"/>
    <g class="cls-10">
      <path class="cls-9" d="M141.3,163.2l3.4,12.9s6.4-10.6,0-25.7c0,0,5.9,16.2,5.7,21.2,0,0,6-18.6-5-34.1,0,0,11.4,8.3,11.8,18.5s.8,14.4.8,14.4c0,0,2.3-24.9,0-30.3l7.6,31.4-23.7,33-4.5-7.6,3.8-33.6Z"/>
    </g>
    <path d="M113.2,168.9s1.2,8.1,3.5,11.5,8.1,5.8,8.1,5.8l8.1-10.4,1.2,5.8-8.1,6.9s-8.1,0-11.5-6.9-3.5-13.8-3.5-13.8l2.3,1.2Z"/>
    <path d="M119,165.5l2.3-2.3s8.1,16.1,8.1,20.7-2.3,12.7-2.3,12.7c0,0,1.2-9.2,0-12.7s-8.1-18.4-8.1-18.4Z"/>
    <polygon points="105.2 163.2 105.2 168.9 105.2 172.4 108.6 167.8 131.6 159.7 130.5 173.5 132.8 170.1 133.9 158.6 133.9 155.1 105.2 163.2"/>
    <path d="M90,141.3c5.5,4.7,13.8,25,.6,40.2-13.2,15.2-31,18.3-31,18.3,0,0,31,44.4,39.4,50.5s48.9,11.7,48.9,11.7h-61.7l-48.2-66.4,2.6-6.7s6-2.6,19.5-2.7c13.5-.2,21.4-17.1,21.4-17.1,0,0-.5-15.6-4-19.7-3.2-3.9-14.9-7-14.9-7l13.8-33.2s0,18.4,3.5,23,4.5,4.5,10,9.2Z"/>
    <path class="cls-5" d="M97.6,155.1l27.6-22s-16.7,10-21.1,14.4-6.5,7.5-6.5,7.5Z"/>
    <polygon points="134.9 191.1 132 185.5 129.2 188.3 134.9 191.1"/>
    <path class="cls-2" d="M226,256.2c3.8-1.1,15.6,1.4,18.5,12s-1.1,19.7-1.1,19.7c0,0,29.7-.5,35.1-2.5s20.3-18.7,20.3-18.7l-18.9,28.1-45,1.6-2.3-3.2s.7-3.5,4.7-9.7c4.1-6.2-1.2-15-1.2-15,0,0-7.2-4.5-10.2-4.2-2.8.3-7.7,4.6-7.7,4.6l-10.9-16.5s8.4,5.6,11.5,5.5,3.4-.6,7.3-1.7Z"/>
    <path class="cls-2" d="M252,260.7s1,7,3,10,7,5,7,5l7-9,1,5-7,6s-7,0-10-6-3-12-3-12l2,1Z"/>
    <path class="cls-2" d="M257,257.7l2-2s7,14,7,18-2,11-2,11c0,0,1-8,0-11s-7-16-7-16Z"/>
    <polygon class="cls-2" points="269 259.7 267.1 264.3 266 267.1 270.3 264.6 291.4 265.7 285.9 276.4 288.9 274.4 293.7 265.6 294.8 262.8 269 259.7"/>
    <path class="cls-5" d="M189.1,51.8s20.2-32.7,51.2-38.8c4.2-.8,37.3-6.8,51.7,14.6,15.2,22.7-23.1,56.2-23.1,56.2,0,0,8.5-49.1-14.8-59.1-23.7-10.2-65.1,27.1-65.1,27.1Z"/>
    <path class="cls-9" d="M269.6,83.2c4.9-4.4,36.6-34.6,22.5-55.6-.3-.4-.6-.8-.9-1.2.7,2.3,1.6,5.7,2.3,10.2,1.4,9-4.8,16-4.8,16,1.8-5.8-2.3-12.9-2.3-12.9,2.9,8.9-9.4,27.2-9.4,27.2l-3-28.5-2,19.5-1.9-2.9c1.1,12.7-.5,24.9-1,28,.2,0,.3.1.5.2Z"/>
    <path class="cls-5" d="M89.6,90.4s73.9,42.6,76.8,61c2.9,18.4,1.4,41.4,1.4,41.4,0,0,26.1-26.5,20.3-49.5-5.8-23-12.2-35.4-30.2-51.4s-69.8-14.2-69.8-14.2l1.4,12.7Z"/>
    <g class="cls-6">
      <path class="cls-9" d="M166.4,153.2l4.3,12.9s8-10.6,0-25.7c0,0,7.4,16.2,7.1,21.2,0,0,7.5-18.6-6.3-34.1,0,0,15.4,8.3,14.9,18.5s-1.5,15.1-1.5,15.1c0,0,0-34.6-3-40l15.1,40.4-29.8,33-5.7-7.6,4.8-33.6Z"/>
    </g>
    <g>
      <path class="cls-8" d="M130.8,271c-.7,1.5-.8,2.3-.7,3.8-14.5,7.9-29.1,15.6-43.7,23.3h-7.6c17.4-8.8,34.7-17.9,52-27.1ZM140.3,271.2c.3,1.5.6,2.3,1.2,3.8-13.3,7.7-26.7,15.3-40.1,23.1h-10.4c16.5-8.9,32.9-17.8,49.2-26.9ZM151.5,271.5c.6,1.5.9,2.3,1.4,3.7-12.2,7.6-24.6,15.1-36.7,22.9h-9.5c14.8-9,29.9-17.7,44.7-26.6Z"/>
      <path class="cls-8" d="M167.5,248.2c8.3,0,12.9,1,21.4,1.5-2,1.8-2.7,2.6-4.2,4-3.5-.3-5.4-.5-9.1-.9.3,1.6.1,2.7-.6,4.9-5.2,1.9-8.3,3-15.2,5.4,3.9.2,5.9.4,9.5.6-2.6,2.6-4.1,3.9-7.2,6.7-10-.3-20-.8-30-.8,11.3-4.5,22.7-8.7,34.2-12.6,2.1-4.6.8-5.5,1.1-8.7Z"/>
      <path class="cls-8" d="M181.9,241.9c5.9.3,8.8.6,14.6.8-2.4,2.2-3.6,3.2-5.7,5.1-8-.4-12.1-1.3-20-1.3,7.9-6,15.7-12.1,23.2-18.5,3.2-1.2,4.8-1.7,7.8-2.8-1.1,4-2,6.1-3.3,10.3-3.5,2.3-5.4,3.4-8.9,5.5.8-2.8,1.4-4.3,2.4-7.2-4.1,3.4-6.2,5.1-10.1,8.2Z"/>
      <path class="cls-8" d="M198.4,224.1c2.4-2.2,3.5-3.3,5.4-5.5,7.1,0,9.6,0,16.1,0-.9,2.1-1.4,3.3-2.7,5.6-7.8,0-10.8-.3-18.8-.2Z"/>
      <path class="cls-8" d="M213.2,211.9c5.1,0,7.1,0,12.3,0-.8,1.6-1.4,2.7-3,4.8-7,0-9.6,0-17.1,0,5.8-7.1,5.6-9.2,7.5-16.1,2.1-1,3.1-1.5,5.1-2.6,1.6,2.5,2.2,3.7,3.5,6.1,2.9-2.5,4.3-3.9,7.2-6.7,2.6-.1,3.9-.2,6.7-.1-6.8,5.9-10.1,9.1-16.6,13.7-1-2.1-1.6-3.2-2.9-5.5-1,2.8-1.6,4.2-2.7,6.5Z"/>
      <path class="cls-8" d="M213.6,176c2.2.7,3.3,1,5.4,1.6,1.4,6.3,1,10.6-.6,18.3-1.8,0-2.6.1-4.5.1,1.7-8.6,1.9-13.5-.4-20ZM220.9,175.3c2.2.5,3.2.7,5.3,1.3,1,6.6.5,11-1.3,19-1.7.1-2.5.2-4.3.3,1.9-8.8,2.3-13.8.3-20.6ZM228.3,174c2.1.5,3.2.8,5.2,1.5.7,6.8,0,11.4-2,19.6-1.8,0-2.6.1-4.3.2,2.1-9.2,2.8-14.4,1.2-21.4Z"/>
    </g>
  </g>
</svg>